<?xml version="1.0" encoding="utf-8" standalone="no"?>
<!DOCTYPE svg PUBLIC "-//W3C//DTD SVG 1.1//EN"
  "http://www.w3.org/Graphics/SVG/1.1/DTD/svg11.dtd">
<svg xmlns:xlink="http://www.w3.org/1999/xlink" width="432pt" height="360pt" viewBox="0 0 432 360" xmlns="http://www.w3.org/2000/svg" version="1.1">
 <metadata>
  <rdf:RDF xmlns:dc="http://purl.org/dc/elements/1.1/" xmlns:cc="http://creativecommons.org/ns#" xmlns:rdf="http://www.w3.org/1999/02/22-rdf-syntax-ns#">
   <cc:Work>
    <dc:type rdf:resource="http://purl.org/dc/dcmitype/StillImage"/>
    <dc:date>2026-09-05T18:08:36.455414</dc:date>
    <dc:format>image/svg+xml</dc:format>
    <dc:creator>
     <cc:Agent>
      <dc:title>Matplotlib v3.10.8, https://matplotlib.org/</dc:title>
     </cc:Agent>
    </dc:creator>
   </cc:Work>
  </rdf:RDF>
 </metadata>
 <defs>
  <style type="text/css">*{stroke-linejoin: round; stroke-linecap: butt}</style>
 </defs>
 <g id="figure_1">
  <g id="patch_1">
   <path d="M 0 360 
L 432 360 
L 432 0 
L 0 0 
z
" style="fill: #ffffff"/>
  </g>
  <g id="axes_1">
   <g id="patch_2">
    <path d="M 44.57 318.04 
L 421.2 318.04 
L 421.2 26.88 
L 44.57 26.88 
z
" style="fill: #ffffff"/>
   </g>
   <g id="matplotlib.axis_1">
    <g id="xtick_1">
     <g id="line2d_1">
      <path d="M 44.57 318.04 
L 44.57 26.88 
" clip-path="url(#p5077f21e7b)" style="fill: none; stroke-dasharray: 2.96,1.28; stroke-dashoffset: 0; stroke: #b0b0b0; stroke-opacity: 0.35; stroke-width: 0.8"/>
     </g>
     <g id="line2d_2">
      <defs>
       <path id="m4667164b80" d="M 0 0 
L 0 3.5 
" style="stroke: #000000; stroke-width: 0.8"/>
      </defs>
      <g>
       <use xlink:href="#m4667164b80" x="44.57" y="318.04" style="stroke: #000000; stroke-width: 0.8"/>
      </g>
     </g>
     <g id="text_1">
      <!-- 0.000 -->
      <g transform="translate(30.255938 332.638438) scale(0.1 -0.1)">
       <defs>
        <path id="DejaVuSans-30" d="M 2034 4250 
Q 1547 4250 1301 3770 
Q 1056 3291 1056 2328 
Q 1056 1369 1301 889 
Q 1547 409 2034 409 
Q 2525 409 2770 889 
Q 3016 1369 3016 2328 
Q 3016 3291 2770 3770 
Q 2525 4250 2034 4250 
z
M 2034 4750 
Q 2819 4750 3233 4129 
Q 3647 3509 3647 2328 
Q 3647 1150 3233 529 
Q 2819 -91 2034 -91 
Q 1250 -91 836 529 
Q 422 1150 422 2328 
Q 422 3509 836 4129 
Q 1250 4750 2034 4750 
z
" transform="scale(0.015625)"/>
        <path id="DejaVuSans-2e" d="M 684 794 
L 1344 794 
L 1344 0 
L 684 0 
L 684 794 
z
" transform="scale(0.015625)"/>
       </defs>
       <use xlink:href="#DejaVuSans-30"/>
       <use xlink:href="#DejaVuSans-2e" transform="translate(63.623047 0)"/>
       <use xlink:href="#DejaVuSans-30" transform="translate(95.410156 0)"/>
       <use xlink:href="#DejaVuSans-30" transform="translate(159.033203 0)"/>
       <use xlink:href="#DejaVuSans-30" transform="translate(222.65625 0)"/>
      </g>
     </g>
    </g>
    <g id="xtick_2">
     <g id="line2d_3">
      <path d="M 109.793528 318.04 
L 109.793528 26.88 
" clip-path="url(#p5077f21e7b)" style="fill: none; stroke-dasharray: 2.96,1.28; stroke-dashoffset: 0; stroke: #b0b0b0; stroke-opacity: 0.35; stroke-width: 0.8"/>
     </g>
     <g id="line2d_4">
      <g>
       <use xlink:href="#m4667164b80" x="109.793528" y="318.04" style="stroke: #000000; stroke-width: 0.8"/>
      </g>
     </g>
     <g id="text_2">
      <!-- 0.002 -->
      <g transform="translate(95.479465 332.638438) scale(0.1 -0.1)">
       <defs>
        <path id="DejaVuSans-32" d="M 1228 531 
L 3431 531 
L 3431 0 
L 469 0 
L 469 531 
Q 828 903 1448 1529 
Q 2069 2156 2228 2338 
Q 2531 2678 2651 2914 
Q 2772 3150 2772 3378 
Q 2772 3750 2511 3984 
Q 2250 4219 1831 4219 
Q 1534 4219 1204 4116 
Q 875 4013 500 3803 
L 500 4441 
Q 881 4594 1212 4672 
Q 1544 4750 1819 4750 
Q 2544 4750 2975 4387 
Q 3406 4025 3406 3419 
Q 3406 3131 3298 2873 
Q 3191 2616 2906 2266 
Q 2828 2175 2409 1742 
Q 1991 1309 1228 531 
z
" transform="scale(0.015625)"/>
       </defs>
       <use xlink:href="#DejaVuSans-30"/>
       <use xlink:href="#DejaVuSans-2e" transform="translate(63.623047 0)"/>
       <use xlink:href="#DejaVuSans-30" transform="translate(95.410156 0)"/>
       <use xlink:href="#DejaVuSans-30" transform="translate(159.033203 0)"/>
       <use xlink:href="#DejaVuSans-32" transform="translate(222.65625 0)"/>
      </g>
     </g>
    </g>
    <g id="xtick_3">
     <g id="line2d_5">
      <path d="M 175.017056 318.04 
L 175.017056 26.88 
" clip-path="url(#p5077f21e7b)" style="fill: none; stroke-dasharray: 2.96,1.28; stroke-dashoffset: 0; stroke: #b0b0b0; stroke-opacity: 0.35; stroke-width: 0.8"/>
     </g>
     <g id="line2d_6">
      <g>
       <use xlink:href="#m4667164b80" x="175.017056" y="318.04" style="stroke: #000000; stroke-width: 0.8"/>
      </g>
     </g>
     <g id="text_3">
      <!-- 0.004 -->
      <g transform="translate(160.702993 332.638438) scale(0.1 -0.1)">
       <defs>
        <path id="DejaVuSans-34" d="M 2419 4116 
L 825 1625 
L 2419 1625 
L 2419 4116 
z
M 2253 4666 
L 3047 4666 
L 3047 1625 
L 3713 1625 
L 3713 1100 
L 3047 1100 
L 3047 0 
L 2419 0 
L 2419 1100 
L 313 1100 
L 313 1709 
L 2253 4666 
z
" transform="scale(0.015625)"/>
       </defs>
       <use xlink:href="#DejaVuSans-30"/>
       <use xlink:href="#DejaVuSans-2e" transform="translate(63.623047 0)"/>
       <use xlink:href="#DejaVuSans-30" transform="translate(95.410156 0)"/>
       <use xlink:href="#DejaVuSans-30" transform="translate(159.033203 0)"/>
       <use xlink:href="#DejaVuSans-34" transform="translate(222.65625 0)"/>
      </g>
     </g>
    </g>
    <g id="xtick_4">
     <g id="line2d_7">
      <path d="M 240.240583 318.04 
L 240.240583 26.88 
" clip-path="url(#p5077f21e7b)" style="fill: none; stroke-dasharray: 2.96,1.28; stroke-dashoffset: 0; stroke: #b0b0b0; stroke-opacity: 0.35; stroke-width: 0.8"/>
     </g>
     <g id="line2d_8">
      <g>
       <use xlink:href="#m4667164b80" x="240.240583" y="318.04" style="stroke: #000000; stroke-width: 0.8"/>
      </g>
     </g>
     <g id="text_4">
      <!-- 0.006 -->
      <g transform="translate(225.926521 332.638438) scale(0.1 -0.1)">
       <defs>
        <path id="DejaVuSans-36" d="M 2113 2584 
Q 1688 2584 1439 2293 
Q 1191 2003 1191 1497 
Q 1191 994 1439 701 
Q 1688 409 2113 409 
Q 2538 409 2786 701 
Q 3034 994 3034 1497 
Q 3034 2003 2786 2293 
Q 2538 2584 2113 2584 
z
M 3366 4563 
L 3366 3988 
Q 3128 4100 2886 4159 
Q 2644 4219 2406 4219 
Q 1781 4219 1451 3797 
Q 1122 3375 1075 2522 
Q 1259 2794 1537 2939 
Q 1816 3084 2150 3084 
Q 2853 3084 3261 2657 
Q 3669 2231 3669 1497 
Q 3669 778 3244 343 
Q 2819 -91 2113 -91 
Q 1303 -91 875 529 
Q 447 1150 447 2328 
Q 447 3434 972 4092 
Q 1497 4750 2381 4750 
Q 2619 4750 2861 4703 
Q 3103 4656 3366 4563 
z
" transform="scale(0.015625)"/>
       </defs>
       <use xlink:href="#DejaVuSans-30"/>
       <use xlink:href="#DejaVuSans-2e" transform="translate(63.623047 0)"/>
       <use xlink:href="#DejaVuSans-30" transform="translate(95.410156 0)"/>
       <use xlink:href="#DejaVuSans-30" transform="translate(159.033203 0)"/>
       <use xlink:href="#DejaVuSans-36" transform="translate(222.65625 0)"/>
      </g>
     </g>
    </g>
    <g id="xtick_5">
     <g id="line2d_9">
      <path d="M 305.464111 318.04 
L 305.464111 26.88 
" clip-path="url(#p5077f21e7b)" style="fill: none; stroke-dasharray: 2.96,1.28; stroke-dashoffset: 0; stroke: #b0b0b0; stroke-opacity: 0.35; stroke-width: 0.8"/>
     </g>
     <g id="line2d_10">
      <g>
       <use xlink:href="#m4667164b80" x="305.464111" y="318.04" style="stroke: #000000; stroke-width: 0.8"/>
      </g>
     </g>
     <g id="text_5">
      <!-- 0.008 -->
      <g transform="translate(291.150049 332.638438) scale(0.1 -0.1)">
       <defs>
        <path id="DejaVuSans-38" d="M 2034 2216 
Q 1584 2216 1326 1975 
Q 1069 1734 1069 1313 
Q 1069 891 1326 650 
Q 1584 409 2034 409 
Q 2484 409 2743 651 
Q 3003 894 3003 1313 
Q 3003 1734 2745 1975 
Q 2488 2216 2034 2216 
z
M 1403 2484 
Q 997 2584 770 2862 
Q 544 3141 544 3541 
Q 544 4100 942 4425 
Q 1341 4750 2034 4750 
Q 2731 4750 3128 4425 
Q 3525 4100 3525 3541 
Q 3525 3141 3298 2862 
Q 3072 2584 2669 2484 
Q 3125 2378 3379 2068 
Q 3634 1759 3634 1313 
Q 3634 634 3220 271 
Q 2806 -91 2034 -91 
Q 1263 -91 848 271 
Q 434 634 434 1313 
Q 434 1759 690 2068 
Q 947 2378 1403 2484 
z
M 1172 3481 
Q 1172 3119 1398 2916 
Q 1625 2713 2034 2713 
Q 2441 2713 2670 2916 
Q 2900 3119 2900 3481 
Q 2900 3844 2670 4047 
Q 2441 4250 2034 4250 
Q 1625 4250 1398 4047 
Q 1172 3844 1172 3481 
z
" transform="scale(0.015625)"/>
       </defs>
       <use xlink:href="#DejaVuSans-30"/>
       <use xlink:href="#DejaVuSans-2e" transform="translate(63.623047 0)"/>
       <use xlink:href="#DejaVuSans-30" transform="translate(95.410156 0)"/>
       <use xlink:href="#DejaVuSans-30" transform="translate(159.033203 0)"/>
       <use xlink:href="#DejaVuSans-38" transform="translate(222.65625 0)"/>
      </g>
     </g>
    </g>
    <g id="xtick_6">
     <g id="line2d_11">
      <path d="M 370.687639 318.04 
L 370.687639 26.88 
" clip-path="url(#p5077f21e7b)" style="fill: none; stroke-dasharray: 2.96,1.28; stroke-dashoffset: 0; stroke: #b0b0b0; stroke-opacity: 0.35; stroke-width: 0.8"/>
     </g>
     <g id="line2d_12">
      <g>
       <use xlink:href="#m4667164b80" x="370.687639" y="318.04" style="stroke: #000000; stroke-width: 0.8"/>
      </g>
     </g>
     <g id="text_6">
      <!-- 0.010 -->
      <g transform="translate(356.373576 332.638438) scale(0.1 -0.1)">
       <defs>
        <path id="DejaVuSans-31" d="M 794 531 
L 1825 531 
L 1825 4091 
L 703 3866 
L 703 4441 
L 1819 4666 
L 2450 4666 
L 2450 531 
L 3481 531 
L 3481 0 
L 794 0 
L 794 531 
z
" transform="scale(0.015625)"/>
       </defs>
       <use xlink:href="#DejaVuSans-30"/>
       <use xlink:href="#DejaVuSans-2e" transform="translate(63.623047 0)"/>
       <use xlink:href="#DejaVuSans-30" transform="translate(95.410156 0)"/>
       <use xlink:href="#DejaVuSans-31" transform="translate(159.033203 0)"/>
       <use xlink:href="#DejaVuSans-30" transform="translate(222.65625 0)"/>
      </g>
     </g>
    </g>
    <g id="text_7">
     <!-- Axial strain -->
     <g transform="translate(204.831875 346.316563) scale(0.1 -0.1)">
      <defs>
       <path id="DejaVuSans-41" d="M 2188 4044 
L 1331 1722 
L 3047 1722 
L 2188 4044 
z
M 1831 4666 
L 2547 4666 
L 4325 0 
L 3669 0 
L 3244 1197 
L 1141 1197 
L 716 0 
L 50 0 
L 1831 4666 
z
" transform="scale(0.015625)"/>
       <path id="DejaVuSans-78" d="M 3513 3500 
L 2247 1797 
L 3578 0 
L 2900 0 
L 1881 1375 
L 863 0 
L 184 0 
L 1544 1831 
L 300 3500 
L 978 3500 
L 1906 2253 
L 2834 3500 
L 3513 3500 
z
" transform="scale(0.015625)"/>
       <path id="DejaVuSans-69" d="M 603 3500 
L 1178 3500 
L 1178 0 
L 603 0 
L 603 3500 
z
M 603 4863 
L 1178 4863 
L 1178 4134 
L 603 4134 
L 603 4863 
z
" transform="scale(0.015625)"/>
       <path id="DejaVuSans-61" d="M 2194 1759 
Q 1497 1759 1228 1600 
Q 959 1441 959 1056 
Q 959 750 1161 570 
Q 1363 391 1709 391 
Q 2188 391 2477 730 
Q 2766 1069 2766 1631 
L 2766 1759 
L 2194 1759 
z
M 3341 1997 
L 3341 0 
L 2766 0 
L 2766 531 
Q 2569 213 2275 61 
Q 1981 -91 1556 -91 
Q 1019 -91 701 211 
Q 384 513 384 1019 
Q 384 1609 779 1909 
Q 1175 2209 1959 2209 
L 2766 2209 
L 2766 2266 
Q 2766 2663 2505 2880 
Q 2244 3097 1772 3097 
Q 1472 3097 1187 3025 
Q 903 2953 641 2809 
L 641 3341 
Q 956 3463 1253 3523 
Q 1550 3584 1831 3584 
Q 2591 3584 2966 3190 
Q 3341 2797 3341 1997 
z
" transform="scale(0.015625)"/>
       <path id="DejaVuSans-6c" d="M 603 4863 
L 1178 4863 
L 1178 0 
L 603 0 
L 603 4863 
z
" transform="scale(0.015625)"/>
       <path id="DejaVuSans-20" transform="scale(0.015625)"/>
       <path id="DejaVuSans-73" d="M 2834 3397 
L 2834 2853 
Q 2591 2978 2328 3040 
Q 2066 3103 1784 3103 
Q 1356 3103 1142 2972 
Q 928 2841 928 2578 
Q 928 2378 1081 2264 
Q 1234 2150 1697 2047 
L 1894 2003 
Q 2506 1872 2764 1633 
Q 3022 1394 3022 966 
Q 3022 478 2636 193 
Q 2250 -91 1575 -91 
Q 1294 -91 989 -36 
Q 684 19 347 128 
L 347 722 
Q 666 556 975 473 
Q 1284 391 1588 391 
Q 1994 391 2212 530 
Q 2431 669 2431 922 
Q 2431 1156 2273 1281 
Q 2116 1406 1581 1522 
L 1381 1569 
Q 847 1681 609 1914 
Q 372 2147 372 2553 
Q 372 3047 722 3315 
Q 1072 3584 1716 3584 
Q 2034 3584 2315 3537 
Q 2597 3491 2834 3397 
z
" transform="scale(0.015625)"/>
       <path id="DejaVuSans-74" d="M 1172 4494 
L 1172 3500 
L 2356 3500 
L 2356 3053 
L 1172 3053 
L 1172 1153 
Q 1172 725 1289 603 
Q 1406 481 1766 481 
L 2356 481 
L 2356 0 
L 1766 0 
Q 1100 0 847 248 
Q 594 497 594 1153 
L 594 3053 
L 172 3053 
L 172 3500 
L 594 3500 
L 594 4494 
L 1172 4494 
z
" transform="scale(0.015625)"/>
       <path id="DejaVuSans-72" d="M 2631 2963 
Q 2534 3019 2420 3045 
Q 2306 3072 2169 3072 
Q 1681 3072 1420 2755 
Q 1159 2438 1159 1844 
L 1159 0 
L 581 0 
L 581 3500 
L 1159 3500 
L 1159 2956 
Q 1341 3275 1631 3429 
Q 1922 3584 2338 3584 
Q 2397 3584 2469 3576 
Q 2541 3569 2628 3553 
L 2631 2963 
z
" transform="scale(0.015625)"/>
       <path id="DejaVuSans-6e" d="M 3513 2113 
L 3513 0 
L 2938 0 
L 2938 2094 
Q 2938 2591 2744 2837 
Q 2550 3084 2163 3084 
Q 1697 3084 1428 2787 
Q 1159 2491 1159 1978 
L 1159 0 
L 581 0 
L 581 3500 
L 1159 3500 
L 1159 2956 
Q 1366 3272 1645 3428 
Q 1925 3584 2291 3584 
Q 2894 3584 3203 3211 
Q 3513 2838 3513 2113 
z
" transform="scale(0.015625)"/>
      </defs>
      <use xlink:href="#DejaVuSans-41"/>
      <use xlink:href="#DejaVuSans-78" transform="translate(68.408203 0)"/>
      <use xlink:href="#DejaVuSans-69" transform="translate(127.587891 0)"/>
      <use xlink:href="#DejaVuSans-61" transform="translate(155.371094 0)"/>
      <use xlink:href="#DejaVuSans-6c" transform="translate(216.650391 0)"/>
      <use xlink:href="#DejaVuSans-20" transform="translate(244.433594 0)"/>
      <use xlink:href="#DejaVuSans-73" transform="translate(276.220703 0)"/>
      <use xlink:href="#DejaVuSans-74" transform="translate(328.320312 0)"/>
      <use xlink:href="#DejaVuSans-72" transform="translate(367.529297 0)"/>
      <use xlink:href="#DejaVuSans-61" transform="translate(408.642578 0)"/>
      <use xlink:href="#DejaVuSans-69" transform="translate(469.921875 0)"/>
      <use xlink:href="#DejaVuSans-6e" transform="translate(497.705078 0)"/>
     </g>
    </g>
   </g>
   <g id="matplotlib.axis_2">
    <g id="ytick_1">
     <g id="line2d_13">
      <path d="M 44.57 318.04 
L 421.2 318.04 
" clip-path="url(#p5077f21e7b)" style="fill: none; stroke-dasharray: 2.96,1.28; stroke-dashoffset: 0; stroke: #b0b0b0; stroke-opacity: 0.35; stroke-width: 0.8"/>
     </g>
     <g id="line2d_14">
      <defs>
       <path id="m41d9daf6bf" d="M 0 0 
L -3.5 0 
" style="stroke: #000000; stroke-width: 0.8"/>
      </defs>
      <g>
       <use xlink:href="#m41d9daf6bf" x="44.57" y="318.04" style="stroke: #000000; stroke-width: 0.8"/>
      </g>
     </g>
     <g id="text_8">
      <!-- 0 -->
      <g transform="translate(31.2075 321.839219) scale(0.1 -0.1)">
       <use xlink:href="#DejaVuSans-30"/>
      </g>
     </g>
    </g>
    <g id="ytick_2">
     <g id="line2d_15">
      <path d="M 44.57 270.314309 
L 421.2 270.314309 
" clip-path="url(#p5077f21e7b)" style="fill: none; stroke-dasharray: 2.96,1.28; stroke-dashoffset: 0; stroke: #b0b0b0; stroke-opacity: 0.35; stroke-width: 0.8"/>
     </g>
     <g id="line2d_16">
      <g>
       <use xlink:href="#m41d9daf6bf" x="44.57" y="270.314309" style="stroke: #000000; stroke-width: 0.8"/>
      </g>
     </g>
     <g id="text_9">
      <!-- 5 -->
      <g transform="translate(31.2075 274.113528) scale(0.1 -0.1)">
       <defs>
        <path id="DejaVuSans-35" d="M 691 4666 
L 3169 4666 
L 3169 4134 
L 1269 4134 
L 1269 2991 
Q 1406 3038 1543 3061 
Q 1681 3084 1819 3084 
Q 2600 3084 3056 2656 
Q 3513 2228 3513 1497 
Q 3513 744 3044 326 
Q 2575 -91 1722 -91 
Q 1428 -91 1123 -41 
Q 819 9 494 109 
L 494 744 
Q 775 591 1075 516 
Q 1375 441 1709 441 
Q 2250 441 2565 725 
Q 2881 1009 2881 1497 
Q 2881 1984 2565 2268 
Q 2250 2553 1709 2553 
Q 1456 2553 1204 2497 
Q 953 2441 691 2322 
L 691 4666 
z
" transform="scale(0.015625)"/>
       </defs>
       <use xlink:href="#DejaVuSans-35"/>
      </g>
     </g>
    </g>
    <g id="ytick_3">
     <g id="line2d_17">
      <path d="M 44.57 222.588618 
L 421.2 222.588618 
" clip-path="url(#p5077f21e7b)" style="fill: none; stroke-dasharray: 2.96,1.28; stroke-dashoffset: 0; stroke: #b0b0b0; stroke-opacity: 0.35; stroke-width: 0.8"/>
     </g>
     <g id="line2d_18">
      <g>
       <use xlink:href="#m41d9daf6bf" x="44.57" y="222.588618" style="stroke: #000000; stroke-width: 0.8"/>
      </g>
     </g>
     <g id="text_10">
      <!-- 10 -->
      <g transform="translate(24.845 226.387837) scale(0.1 -0.1)">
       <use xlink:href="#DejaVuSans-31"/>
       <use xlink:href="#DejaVuSans-30" transform="translate(63.623047 0)"/>
      </g>
     </g>
    </g>
    <g id="ytick_4">
     <g id="line2d_19">
      <path d="M 44.57 174.862927 
L 421.2 174.862927 
" clip-path="url(#p5077f21e7b)" style="fill: none; stroke-dasharray: 2.96,1.28; stroke-dashoffset: 0; stroke: #b0b0b0; stroke-opacity: 0.35; stroke-width: 0.8"/>
     </g>
     <g id="line2d_20">
      <g>
       <use xlink:href="#m41d9daf6bf" x="44.57" y="174.862927" style="stroke: #000000; stroke-width: 0.8"/>
      </g>
     </g>
     <g id="text_11">
      <!-- 15 -->
      <g transform="translate(24.845 178.662146) scale(0.1 -0.1)">
       <use xlink:href="#DejaVuSans-31"/>
       <use xlink:href="#DejaVuSans-35" transform="translate(63.623047 0)"/>
      </g>
     </g>
    </g>
    <g id="ytick_5">
     <g id="line2d_21">
      <path d="M 44.57 127.137236 
L 421.2 127.137236 
" clip-path="url(#p5077f21e7b)" style="fill: none; stroke-dasharray: 2.96,1.28; stroke-dashoffset: 0; stroke: #b0b0b0; stroke-opacity: 0.35; stroke-width: 0.8"/>
     </g>
     <g id="line2d_22">
      <g>
       <use xlink:href="#m41d9daf6bf" x="44.57" y="127.137236" style="stroke: #000000; stroke-width: 0.8"/>
      </g>
     </g>
     <g id="text_12">
      <!-- 20 -->
      <g transform="translate(24.845 130.936455) scale(0.1 -0.1)">
       <use xlink:href="#DejaVuSans-32"/>
       <use xlink:href="#DejaVuSans-30" transform="translate(63.623047 0)"/>
      </g>
     </g>
    </g>
    <g id="ytick_6">
     <g id="line2d_23">
      <path d="M 44.57 79.411545 
L 421.2 79.411545 
" clip-path="url(#p5077f21e7b)" style="fill: none; stroke-dasharray: 2.96,1.28; stroke-dashoffset: 0; stroke: #b0b0b0; stroke-opacity: 0.35; stroke-width: 0.8"/>
     </g>
     <g id="line2d_24">
      <g>
       <use xlink:href="#m41d9daf6bf" x="44.57" y="79.411545" style="stroke: #000000; stroke-width: 0.8"/>
      </g>
     </g>
     <g id="text_13">
      <!-- 25 -->
      <g transform="translate(24.845 83.210763) scale(0.1 -0.1)">
       <use xlink:href="#DejaVuSans-32"/>
       <use xlink:href="#DejaVuSans-35" transform="translate(63.623047 0)"/>
      </g>
     </g>
    </g>
    <g id="ytick_7">
     <g id="line2d_25">
      <path d="M 44.57 31.685854 
L 421.2 31.685854 
" clip-path="url(#p5077f21e7b)" style="fill: none; stroke-dasharray: 2.96,1.28; stroke-dashoffset: 0; stroke: #b0b0b0; stroke-opacity: 0.35; stroke-width: 0.8"/>
     </g>
     <g id="line2d_26">
      <g>
       <use xlink:href="#m41d9daf6bf" x="44.57" y="31.685854" style="stroke: #000000; stroke-width: 0.8"/>
      </g>
     </g>
     <g id="text_14">
      <!-- 30 -->
      <g transform="translate(24.845 35.485072) scale(0.1 -0.1)">
       <defs>
        <path id="DejaVuSans-33" d="M 2597 2516 
Q 3050 2419 3304 2112 
Q 3559 1806 3559 1356 
Q 3559 666 3084 287 
Q 2609 -91 1734 -91 
Q 1441 -91 1130 -33 
Q 819 25 488 141 
L 488 750 
Q 750 597 1062 519 
Q 1375 441 1716 441 
Q 2309 441 2620 675 
Q 2931 909 2931 1356 
Q 2931 1769 2642 2001 
Q 2353 2234 1838 2234 
L 1294 2234 
L 1294 2753 
L 1863 2753 
Q 2328 2753 2575 2939 
Q 2822 3125 2822 3475 
Q 2822 3834 2567 4026 
Q 2313 4219 1838 4219 
Q 1578 4219 1281 4162 
Q 984 4106 628 3988 
L 628 4550 
Q 988 4650 1302 4700 
Q 1616 4750 1894 4750 
Q 2613 4750 3031 4423 
Q 3450 4097 3450 3541 
Q 3450 3153 3228 2886 
Q 3006 2619 2597 2516 
z
" transform="scale(0.015625)"/>
       </defs>
       <use xlink:href="#DejaVuSans-33"/>
       <use xlink:href="#DejaVuSans-30" transform="translate(63.623047 0)"/>
      </g>
     </g>
    </g>
    <g id="text_15">
     <!-- Axial stress (MPa) -->
     <g transform="translate(18.765313 216.723281) rotate(-90) scale(0.1 -0.1)">
      <defs>
       <path id="DejaVuSans-65" d="M 3597 1894 
L 3597 1613 
L 953 1613 
Q 991 1019 1311 708 
Q 1631 397 2203 397 
Q 2534 397 2845 478 
Q 3156 559 3463 722 
L 3463 178 
Q 3153 47 2828 -22 
Q 2503 -91 2169 -91 
Q 1331 -91 842 396 
Q 353 884 353 1716 
Q 353 2575 817 3079 
Q 1281 3584 2069 3584 
Q 2775 3584 3186 3129 
Q 3597 2675 3597 1894 
z
M 3022 2063 
Q 3016 2534 2758 2815 
Q 2500 3097 2075 3097 
Q 1594 3097 1305 2825 
Q 1016 2553 972 2059 
L 3022 2063 
z
" transform="scale(0.015625)"/>
       <path id="DejaVuSans-28" d="M 1984 4856 
Q 1566 4138 1362 3434 
Q 1159 2731 1159 2009 
Q 1159 1288 1364 580 
Q 1569 -128 1984 -844 
L 1484 -844 
Q 1016 -109 783 600 
Q 550 1309 550 2009 
Q 550 2706 781 3412 
Q 1013 4119 1484 4856 
L 1984 4856 
z
" transform="scale(0.015625)"/>
       <path id="DejaVuSans-4d" d="M 628 4666 
L 1569 4666 
L 2759 1491 
L 3956 4666 
L 4897 4666 
L 4897 0 
L 4281 0 
L 4281 4097 
L 3078 897 
L 2444 897 
L 1241 4097 
L 1241 0 
L 628 0 
L 628 4666 
z
" transform="scale(0.015625)"/>
       <path id="DejaVuSans-50" d="M 1259 4147 
L 1259 2394 
L 2053 2394 
Q 2494 2394 2734 2622 
Q 2975 2850 2975 3272 
Q 2975 3691 2734 3919 
Q 2494 4147 2053 4147 
L 1259 4147 
z
M 628 4666 
L 2053 4666 
Q 2838 4666 3239 4311 
Q 3641 3956 3641 3272 
Q 3641 2581 3239 2228 
Q 2838 1875 2053 1875 
L 1259 1875 
L 1259 0 
L 628 0 
L 628 4666 
z
" transform="scale(0.015625)"/>
       <path id="DejaVuSans-29" d="M 513 4856 
L 1013 4856 
Q 1481 4119 1714 3412 
Q 1947 2706 1947 2009 
Q 1947 1309 1714 600 
Q 1481 -109 1013 -844 
L 513 -844 
Q 928 -128 1133 580 
Q 1338 1288 1338 2009 
Q 1338 2731 1133 3434 
Q 928 4138 513 4856 
z
" transform="scale(0.015625)"/>
      </defs>
      <use xlink:href="#DejaVuSans-41"/>
      <use xlink:href="#DejaVuSans-78" transform="translate(68.408203 0)"/>
      <use xlink:href="#DejaVuSans-69" transform="translate(127.587891 0)"/>
      <use xlink:href="#DejaVuSans-61" transform="translate(155.371094 0)"/>
      <use xlink:href="#DejaVuSans-6c" transform="translate(216.650391 0)"/>
      <use xlink:href="#DejaVuSans-20" transform="translate(244.433594 0)"/>
      <use xlink:href="#DejaVuSans-73" transform="translate(276.220703 0)"/>
      <use xlink:href="#DejaVuSans-74" transform="translate(328.320312 0)"/>
      <use xlink:href="#DejaVuSans-72" transform="translate(367.529297 0)"/>
      <use xlink:href="#DejaVuSans-65" transform="translate(406.392578 0)"/>
      <use xlink:href="#DejaVuSans-73" transform="translate(467.916016 0)"/>
      <use xlink:href="#DejaVuSans-73" transform="translate(520.015625 0)"/>
      <use xlink:href="#DejaVuSans-20" transform="translate(572.115234 0)"/>
      <use xlink:href="#DejaVuSans-28" transform="translate(603.902344 0)"/>
      <use xlink:href="#DejaVuSans-4d" transform="translate(642.916016 0)"/>
      <use xlink:href="#DejaVuSans-50" transform="translate(729.195312 0)"/>
      <use xlink:href="#DejaVuSans-61" transform="translate(784.998047 0)"/>
      <use xlink:href="#DejaVuSans-29" transform="translate(846.277344 0)"/>
     </g>
    </g>
   </g>
   <g id="line2d_27">
    <path d="M 45.287459 316.255111 
L 60.354094 279.06613 
L 69.681058 256.643052 
L 77.573105 238.231416 
L 84.747693 222.044168 
L 91.204822 207.989713 
L 97.661952 194.473691 
L 103.401622 182.946881 
L 109.141293 171.906967 
L 114.880963 161.377377 
L 119.903175 152.598432 
L 124.925386 144.236887 
L 129.947598 136.302126 
L 134.96981 128.801653 
L 139.992021 121.741136 
L 144.296774 116.04243 
L 148.601527 110.671281 
L 152.90628 105.628225 
L 157.211032 100.912927 
L 161.515785 96.524209 
L 165.820538 92.460086 
L 170.125291 88.717803 
L 174.430044 85.293865 
L 178.734797 82.184077 
L 183.039549 79.383583 
L 187.344302 76.886902 
L 191.649055 74.68797 
L 195.953808 72.780175 
L 200.258561 71.156403 
L 204.563314 69.809072 
L 208.868066 68.730177 
L 213.172819 67.911327 
L 217.477572 67.343784 
L 221.782325 67.018505 
L 226.087078 66.926179 
L 230.391831 67.057264 
L 234.696583 67.402026 
L 239.001336 67.950574 
L 244.023548 68.834748 
L 249.04576 69.966622 
L 254.067971 71.330062 
L 259.090183 72.90891 
L 264.829853 74.956406 
L 270.569524 77.240326 
L 277.026653 80.062973 
L 283.483782 83.122 
L 290.65837 86.759028 
L 298.550417 90.999931 
L 307.877382 96.26403 
L 320.074181 103.426063 
L 362.404251 128.537737 
L 373.166133 134.533334 
L 382.493097 139.49293 
L 391.820062 144.198334 
L 400.429568 148.293169 
L 403.299403 149.60199 
L 403.299403 149.60199 
" clip-path="url(#p5077f21e7b)" style="fill: none; stroke: #1f77b4; stroke-width: 1.5; stroke-linecap: square"/>
   </g>
   <g id="line2d_28">
    <path d="M 45.287459 316.255075 
L 63.223929 271.91781 
L 73.268352 247.679899 
L 81.877858 227.489817 
L 89.052446 211.193659 
L 96.227034 195.466457 
L 102.684163 181.861989 
L 108.423834 170.250075 
L 114.163504 159.125543 
L 119.903175 148.518645 
L 124.925386 139.683617 
L 129.947598 131.281812 
L 134.96981 123.327369 
L 139.992021 115.832423 
L 144.296774 109.781621 
L 148.601527 104.081033 
L 152.90628 98.734724 
L 157.211032 93.745658 
L 161.515785 89.115709 
L 165.820538 84.845673 
L 170.125291 80.935287 
L 173.712585 77.950457 
L 177.299879 75.213209 
L 180.887173 72.721778 
L 184.474467 70.473936 
L 188.061761 68.467006 
L 191.649055 66.69788 
L 195.236349 65.163032 
L 198.823643 63.858541 
L 202.410937 62.780099 
L 205.998231 61.923043 
L 209.585525 61.282363 
L 213.172819 60.85273 
L 216.760113 60.628512 
L 220.347407 60.603799 
L 223.934701 60.772421 
L 228.239454 61.220936 
L 232.544207 61.927146 
L 236.84896 62.879187 
L 241.153713 64.064863 
L 245.458466 65.471693 
L 249.763218 67.086973 
L 254.78543 69.217736 
L 259.807642 71.594037 
L 265.547312 74.583828 
L 271.286983 77.8362 
L 277.744112 81.770627 
L 284.9187 86.433608 
L 292.810747 91.850185 
L 302.137711 98.540735 
L 315.05197 108.115433 
L 340.880487 127.327328 
L 351.642369 135.004357 
L 360.969333 141.37501 
L 369.578839 146.971297 
L 377.470886 151.829544 
L 384.645474 156.000977 
L 391.820062 159.925047 
L 398.99465 163.591547 
L 403.299403 165.664677 
L 403.299403 165.664677 
" clip-path="url(#p5077f21e7b)" style="fill: none; stroke: #ff7f0e; stroke-width: 1.5; stroke-linecap: square"/>
   </g>
   <g id="line2d_29">
    <path d="M 45.287459 316.255064 
L 66.093764 264.766973 
L 76.855646 238.720775 
L 85.465152 218.42556 
L 93.357199 200.384732 
L 100.531787 184.551372 
L 106.988916 170.835266 
L 112.728587 159.117141 
L 118.468257 147.885863 
L 124.207927 137.178137 
L 129.230139 128.265155 
L 134.252351 119.800003 
L 139.274562 111.801682 
L 143.579315 105.330462 
L 147.884068 99.224169 
L 152.188821 93.491047 
L 156.493574 88.138108 
L 160.798327 83.171095 
L 165.103079 78.59447 
L 168.690373 75.081146 
L 172.277667 71.842272 
L 175.864961 68.878351 
L 179.452255 66.189253 
L 183.039549 63.774223 
L 186.626844 61.631888 
L 190.214138 59.760265 
L 193.801432 58.156771 
L 197.388726 56.818241 
L 200.97602 55.740938 
L 204.563314 54.920575 
L 208.150608 54.352332 
L 211.737902 54.030879 
L 215.325196 53.950397 
L 218.91249 54.104604 
L 222.499784 54.486781 
L 226.087078 55.089799 
L 229.674372 55.906147 
L 233.261666 56.927962 
L 237.566419 58.413809 
L 241.871172 60.169033 
L 246.175924 62.178418 
L 250.480677 64.4263 
L 255.502889 67.328863 
L 260.5251 70.508287 
L 265.547312 73.938283 
L 271.286983 78.131133 
L 277.744112 83.148726 
L 284.9187 89.031699 
L 293.528206 96.416684 
L 304.290088 105.96674 
L 332.270981 130.93998 
L 341.597946 138.884264 
L 349.489992 145.329381 
L 356.66458 150.925037 
L 363.839168 156.238481 
L 370.296298 160.75883 
L 376.753427 165.016284 
L 383.210556 168.999867 
L 389.667685 172.701755 
L 395.407356 175.751836 
L 401.147026 178.573856 
L 403.299403 179.573266 
L 403.299403 179.573266 
" clip-path="url(#p5077f21e7b)" style="fill: none; stroke: #2ca02c; stroke-width: 1.5; stroke-linecap: square"/>
   </g>
   <g id="line2d_30">
    <path d="M 45.287459 316.255061 
L 69.681058 255.857844 
L 81.160399 228.049882 
L 90.487364 206.048067 
L 98.37941 187.998244 
L 105.553998 172.146934 
L 112.011128 158.411658 
L 117.750798 146.678995 
L 123.490469 135.440735 
L 128.51268 126.046187 
L 133.534892 117.089676 
L 138.557104 108.596707 
L 143.579315 100.591031 
L 147.884068 94.133434 
L 152.188821 88.062334 
L 156.493574 82.388927 
L 160.798327 77.123069 
L 164.385621 73.052319 
L 167.972915 69.274602 
L 171.560209 65.793307 
L 175.147503 62.611075 
L 178.734797 59.72979 
L 182.322091 57.150563 
L 185.909385 54.873728 
L 189.496679 52.898836 
L 193.083973 51.224656 
L 196.671267 49.849179 
L 199.541102 48.96202 
L 202.410937 48.26249 
L 205.280772 47.748506 
L 208.150608 47.417684 
L 211.020443 47.267344 
L 214.607737 47.328672 
L 218.195031 47.660932 
L 221.782325 48.257055 
L 225.369619 49.109347 
L 228.956913 50.209516 
L 232.544207 51.548714 
L 236.131501 53.117571 
L 239.718795 54.906237 
L 244.023548 57.328265 
L 248.328301 60.033452 
L 252.633054 63.00256 
L 256.937806 66.215758 
L 261.960018 70.245876 
L 266.98223 74.547713 
L 272.7219 79.754132 
L 279.179029 85.921514 
L 286.353617 93.076496 
L 295.680582 102.702396 
L 326.531311 134.839731 
L 334.423357 142.628039 
L 341.597946 149.414674 
L 348.055075 155.242114 
L 354.512204 160.773181 
L 360.251874 165.421319 
L 365.991545 169.802775 
L 371.731215 173.907249 
L 377.470886 177.727446 
L 383.210556 181.258908 
L 388.950227 184.499833 
L 393.972438 187.097763 
L 398.99465 189.475553 
L 403.299403 191.340717 
L 403.299403 191.340717 
" clip-path="url(#p5077f21e7b)" style="fill: none; stroke: #d62728; stroke-width: 1.5; stroke-linecap: square"/>
   </g>
   <g id="line2d_31">
    <path d="M 45.287459 316.25506 
L 72.550893 248.7043 
L 84.747693 219.098654 
L 94.074658 197.023058 
L 101.966704 178.879746 
L 109.141293 162.921634 
L 115.598422 149.077021 
L 121.338092 137.241381 
L 127.077763 125.899892 
L 132.099974 116.419389 
L 137.122186 107.385555 
L 142.144398 98.828589 
L 146.44915 91.895389 
L 150.753903 85.350669 
L 155.058656 79.210328 
L 159.363409 73.489015 
L 162.950703 69.050966 
L 166.537997 64.920044 
L 170.125291 61.102376 
L 173.712585 57.603283 
L 177.299879 54.42724 
L 180.887173 51.577845 
L 184.474467 49.057791 
L 187.344302 47.280088 
L 190.214138 45.714772 
L 193.083973 44.361911 
L 195.953808 43.221176 
L 198.823643 42.291837 
L 201.693478 41.572761 
L 204.563314 41.062413 
L 207.433149 40.758859 
L 210.302984 40.659767 
L 213.172819 40.762415 
L 216.042655 41.063693 
L 218.91249 41.560112 
L 221.782325 42.247815 
L 224.65216 43.122583 
L 228.239454 44.472115 
L 231.826748 46.097124 
L 235.414042 47.98718 
L 239.001336 50.131125 
L 242.58863 52.51712 
L 246.893383 55.682239 
L 251.198136 59.155344 
L 255.502889 62.912825 
L 260.5251 67.623288 
L 265.547312 72.647463 
L 271.286983 78.720973 
L 277.744112 85.902397 
L 285.636159 95.056689 
L 296.398041 107.937104 
L 315.05197 130.314202 
L 323.661475 140.258986 
L 330.836063 148.210102 
L 337.293193 155.042209 
L 343.032863 160.821062 
L 348.772534 166.296681 
L 354.512204 171.44862 
L 359.534416 175.678524 
L 364.556627 179.640717 
L 369.578839 183.329994 
L 374.601051 186.743552 
L 379.623262 189.880844 
L 384.645474 192.743407 
L 389.667685 195.334684 
L 394.689897 197.659837 
L 399.712109 199.725549 
L 403.299403 201.046606 
L 403.299403 201.046606 
" clip-path="url(#p5077f21e7b)" style="fill: none; stroke: #9467bd; stroke-width: 1.5; stroke-linecap: square"/>
   </g>
   <g id="patch_3">
    <path d="M 44.57 318.04 
L 44.57 26.88 
" style="fill: none; stroke: #000000; stroke-width: 0.8; stroke-linejoin: miter; stroke-linecap: square"/>
   </g>
   <g id="patch_4">
    <path d="M 421.2 318.04 
L 421.2 26.88 
" style="fill: none; stroke: #000000; stroke-width: 0.8; stroke-linejoin: miter; stroke-linecap: square"/>
   </g>
   <g id="patch_5">
    <path d="M 44.57 318.04 
L 421.2 318.04 
" style="fill: none; stroke: #000000; stroke-width: 0.8; stroke-linejoin: miter; stroke-linecap: square"/>
   </g>
   <g id="patch_6">
    <path d="M 44.57 26.88 
L 421.2 26.88 
" style="fill: none; stroke: #000000; stroke-width: 0.8; stroke-linejoin: miter; stroke-linecap: square"/>
   </g>
   <g id="text_16">
    <!-- Figure 6-style sensitivity to m (illustrative) -->
    <g transform="translate(105.873438 20.88) scale(0.12 -0.12)">
     <defs>
      <path id="DejaVuSans-46" d="M 628 4666 
L 3309 4666 
L 3309 4134 
L 1259 4134 
L 1259 2759 
L 3109 2759 
L 3109 2228 
L 1259 2228 
L 1259 0 
L 628 0 
L 628 4666 
z
" transform="scale(0.015625)"/>
      <path id="DejaVuSans-67" d="M 2906 1791 
Q 2906 2416 2648 2759 
Q 2391 3103 1925 3103 
Q 1463 3103 1205 2759 
Q 947 2416 947 1791 
Q 947 1169 1205 825 
Q 1463 481 1925 481 
Q 2391 481 2648 825 
Q 2906 1169 2906 1791 
z
M 3481 434 
Q 3481 -459 3084 -895 
Q 2688 -1331 1869 -1331 
Q 1566 -1331 1297 -1286 
Q 1028 -1241 775 -1147 
L 775 -588 
Q 1028 -725 1275 -790 
Q 1522 -856 1778 -856 
Q 2344 -856 2625 -561 
Q 2906 -266 2906 331 
L 2906 616 
Q 2728 306 2450 153 
Q 2172 0 1784 0 
Q 1141 0 747 490 
Q 353 981 353 1791 
Q 353 2603 747 3093 
Q 1141 3584 1784 3584 
Q 2172 3584 2450 3431 
Q 2728 3278 2906 2969 
L 2906 3500 
L 3481 3500 
L 3481 434 
z
" transform="scale(0.015625)"/>
      <path id="DejaVuSans-75" d="M 544 1381 
L 544 3500 
L 1119 3500 
L 1119 1403 
Q 1119 906 1312 657 
Q 1506 409 1894 409 
Q 2359 409 2629 706 
Q 2900 1003 2900 1516 
L 2900 3500 
L 3475 3500 
L 3475 0 
L 2900 0 
L 2900 538 
Q 2691 219 2414 64 
Q 2138 -91 1772 -91 
Q 1169 -91 856 284 
Q 544 659 544 1381 
z
M 1991 3584 
L 1991 3584 
z
" transform="scale(0.015625)"/>
      <path id="DejaVuSans-2d" d="M 313 2009 
L 1997 2009 
L 1997 1497 
L 313 1497 
L 313 2009 
z
" transform="scale(0.015625)"/>
      <path id="DejaVuSans-79" d="M 2059 -325 
Q 1816 -950 1584 -1140 
Q 1353 -1331 966 -1331 
L 506 -1331 
L 506 -850 
L 844 -850 
Q 1081 -850 1212 -737 
Q 1344 -625 1503 -206 
L 1606 56 
L 191 3500 
L 800 3500 
L 1894 763 
L 2988 3500 
L 3597 3500 
L 2059 -325 
z
" transform="scale(0.015625)"/>
      <path id="DejaVuSans-76" d="M 191 3500 
L 800 3500 
L 1894 563 
L 2988 3500 
L 3597 3500 
L 2284 0 
L 1503 0 
L 191 3500 
z
" transform="scale(0.015625)"/>
      <path id="DejaVuSans-6f" d="M 1959 3097 
Q 1497 3097 1228 2736 
Q 959 2375 959 1747 
Q 959 1119 1226 758 
Q 1494 397 1959 397 
Q 2419 397 2687 759 
Q 2956 1122 2956 1747 
Q 2956 2369 2687 2733 
Q 2419 3097 1959 3097 
z
M 1959 3584 
Q 2709 3584 3137 3096 
Q 3566 2609 3566 1747 
Q 3566 888 3137 398 
Q 2709 -91 1959 -91 
Q 1206 -91 779 398 
Q 353 888 353 1747 
Q 353 2609 779 3096 
Q 1206 3584 1959 3584 
z
" transform="scale(0.015625)"/>
      <path id="DejaVuSans-6d" d="M 3328 2828 
Q 3544 3216 3844 3400 
Q 4144 3584 4550 3584 
Q 5097 3584 5394 3201 
Q 5691 2819 5691 2113 
L 5691 0 
L 5113 0 
L 5113 2094 
Q 5113 2597 4934 2840 
Q 4756 3084 4391 3084 
Q 3944 3084 3684 2787 
Q 3425 2491 3425 1978 
L 3425 0 
L 2847 0 
L 2847 2094 
Q 2847 2600 2669 2842 
Q 2491 3084 2119 3084 
Q 1678 3084 1418 2786 
Q 1159 2488 1159 1978 
L 1159 0 
L 581 0 
L 581 3500 
L 1159 3500 
L 1159 2956 
Q 1356 3278 1631 3431 
Q 1906 3584 2284 3584 
Q 2666 3584 2933 3390 
Q 3200 3197 3328 2828 
z
" transform="scale(0.015625)"/>
     </defs>
     <use xlink:href="#DejaVuSans-46"/>
     <use xlink:href="#DejaVuSans-69" transform="translate(50.269531 0)"/>
     <use xlink:href="#DejaVuSans-67" transform="translate(78.052734 0)"/>
     <use xlink:href="#DejaVuSans-75" transform="translate(141.529297 0)"/>
     <use xlink:href="#DejaVuSans-72" transform="translate(204.908203 0)"/>
     <use xlink:href="#DejaVuSans-65" transform="translate(243.771484 0)"/>
     <use xlink:href="#DejaVuSans-20" transform="translate(305.294922 0)"/>
     <use xlink:href="#DejaVuSans-36" transform="translate(337.082031 0)"/>
     <use xlink:href="#DejaVuSans-2d" transform="translate(400.705078 0)"/>
     <use xlink:href="#DejaVuSans-73" transform="translate(436.789062 0)"/>
     <use xlink:href="#DejaVuSans-74" transform="translate(488.888672 0)"/>
     <use xlink:href="#DejaVuSans-79" transform="translate(528.097656 0)"/>
     <use xlink:href="#DejaVuSans-6c" transform="translate(587.277344 0)"/>
     <use xlink:href="#DejaVuSans-65" transform="translate(615.060547 0)"/>
     <use xlink:href="#DejaVuSans-20" transform="translate(676.583984 0)"/>
     <use xlink:href="#DejaVuSans-73" transform="translate(708.371094 0)"/>
     <use xlink:href="#DejaVuSans-65" transform="translate(760.470703 0)"/>
     <use xlink:href="#DejaVuSans-6e" transform="translate(821.994141 0)"/>
     <use xlink:href="#DejaVuSans-73" transform="translate(885.373047 0)"/>
     <use xlink:href="#DejaVuSans-69" transform="translate(937.472656 0)"/>
     <use xlink:href="#DejaVuSans-74" transform="translate(965.255859 0)"/>
     <use xlink:href="#DejaVuSans-69" transform="translate(1004.464844 0)"/>
     <use xlink:href="#DejaVuSans-76" transform="translate(1032.248047 0)"/>
     <use xlink:href="#DejaVuSans-69" transform="translate(1091.427734 0)"/>
     <use xlink:href="#DejaVuSans-74" transform="translate(1119.210938 0)"/>
     <use xlink:href="#DejaVuSans-79" transform="translate(1158.419922 0)"/>
     <use xlink:href="#DejaVuSans-20" transform="translate(1217.599609 0)"/>
     <use xlink:href="#DejaVuSans-74" transform="translate(1249.386719 0)"/>
     <use xlink:href="#DejaVuSans-6f" transform="translate(1288.595703 0)"/>
     <use xlink:href="#DejaVuSans-20" transform="translate(1349.777344 0)"/>
     <use xlink:href="#DejaVuSans-6d" transform="translate(1381.564453 0)"/>
     <use xlink:href="#DejaVuSans-20" transform="translate(1478.976562 0)"/>
     <use xlink:href="#DejaVuSans-28" transform="translate(1510.763672 0)"/>
     <use xlink:href="#DejaVuSans-69" transform="translate(1549.777344 0)"/>
     <use xlink:href="#DejaVuSans-6c" transform="translate(1577.560547 0)"/>
     <use xlink:href="#DejaVuSans-6c" transform="translate(1605.34375 0)"/>
     <use xlink:href="#DejaVuSans-75" transform="translate(1633.126953 0)"/>
     <use xlink:href="#DejaVuSans-73" transform="translate(1696.505859 0)"/>
     <use xlink:href="#DejaVuSans-74" transform="translate(1748.605469 0)"/>
     <use xlink:href="#DejaVuSans-72" transform="translate(1787.814453 0)"/>
     <use xlink:href="#DejaVuSans-61" transform="translate(1828.927734 0)"/>
     <use xlink:href="#DejaVuSans-74" transform="translate(1890.207031 0)"/>
     <use xlink:href="#DejaVuSans-69" transform="translate(1929.416016 0)"/>
     <use xlink:href="#DejaVuSans-76" transform="translate(1957.199219 0)"/>
     <use xlink:href="#DejaVuSans-65" transform="translate(2016.378906 0)"/>
     <use xlink:href="#DejaVuSans-29" transform="translate(2077.902344 0)"/>
    </g>
   </g>
   <g id="legend_1">
    <g id="patch_7">
     <path d="M 348.176562 108.270625 
L 414.2 108.270625 
Q 416.2 108.270625 416.2 106.270625 
L 416.2 33.88 
Q 416.2 31.88 414.2 31.88 
L 348.176562 31.88 
Q 346.176562 31.88 346.176562 33.88 
L 346.176562 106.270625 
Q 346.176562 108.270625 348.176562 108.270625 
z
" style="fill: #ffffff; opacity: 0.8; stroke: #cccccc; stroke-linejoin: miter"/>
    </g>
    <g id="line2d_32">
     <path d="M 350.176562 39.978437 
L 360.176562 39.978437 
L 370.176562 39.978437 
" style="fill: none; stroke: #1f77b4; stroke-width: 1.5; stroke-linecap: square"/>
    </g>
    <g id="text_17">
     <!-- m=1.8 -->
     <g transform="translate(378.176562 43.478437) scale(0.1 -0.1)">
      <defs>
       <path id="DejaVuSans-3d" d="M 678 2906 
L 4684 2906 
L 4684 2381 
L 678 2381 
L 678 2906 
z
M 678 1631 
L 4684 1631 
L 4684 1100 
L 678 1100 
L 678 1631 
z
" transform="scale(0.015625)"/>
      </defs>
      <use xlink:href="#DejaVuSans-6d"/>
      <use xlink:href="#DejaVuSans-3d" transform="translate(97.412109 0)"/>
      <use xlink:href="#DejaVuSans-31" transform="translate(181.201172 0)"/>
      <use xlink:href="#DejaVuSans-2e" transform="translate(244.824219 0)"/>
      <use xlink:href="#DejaVuSans-38" transform="translate(276.611328 0)"/>
     </g>
    </g>
    <g id="line2d_33">
     <path d="M 350.176562 54.656563 
L 360.176562 54.656563 
L 370.176562 54.656563 
" style="fill: none; stroke: #ff7f0e; stroke-width: 1.5; stroke-linecap: square"/>
    </g>
    <g id="text_18">
     <!-- m=2.0 -->
     <g transform="translate(378.176562 58.156563) scale(0.1 -0.1)">
      <use xlink:href="#DejaVuSans-6d"/>
      <use xlink:href="#DejaVuSans-3d" transform="translate(97.412109 0)"/>
      <use xlink:href="#DejaVuSans-32" transform="translate(181.201172 0)"/>
      <use xlink:href="#DejaVuSans-2e" transform="translate(244.824219 0)"/>
      <use xlink:href="#DejaVuSans-30" transform="translate(276.611328 0)"/>
     </g>
    </g>
    <g id="line2d_34">
     <path d="M 350.176562 69.334687 
L 360.176562 69.334687 
L 370.176562 69.334687 
" style="fill: none; stroke: #2ca02c; stroke-width: 1.5; stroke-linecap: square"/>
    </g>
    <g id="text_19">
     <!-- m=2.2 -->
     <g transform="translate(378.176562 72.834687) scale(0.1 -0.1)">
      <use xlink:href="#DejaVuSans-6d"/>
      <use xlink:href="#DejaVuSans-3d" transform="translate(97.412109 0)"/>
      <use xlink:href="#DejaVuSans-32" transform="translate(181.201172 0)"/>
      <use xlink:href="#DejaVuSans-2e" transform="translate(244.824219 0)"/>
      <use xlink:href="#DejaVuSans-32" transform="translate(276.611328 0)"/>
     </g>
    </g>
    <g id="line2d_35">
     <path d="M 350.176562 84.012812 
L 360.176562 84.012812 
L 370.176562 84.012812 
" style="fill: none; stroke: #d62728; stroke-width: 1.5; stroke-linecap: square"/>
    </g>
    <g id="text_20">
     <!-- m=2.4 -->
     <g transform="translate(378.176562 87.512812) scale(0.1 -0.1)">
      <use xlink:href="#DejaVuSans-6d"/>
      <use xlink:href="#DejaVuSans-3d" transform="translate(97.412109 0)"/>
      <use xlink:href="#DejaVuSans-32" transform="translate(181.201172 0)"/>
      <use xlink:href="#DejaVuSans-2e" transform="translate(244.824219 0)"/>
      <use xlink:href="#DejaVuSans-34" transform="translate(276.611328 0)"/>
     </g>
    </g>
    <g id="line2d_36">
     <path d="M 350.176562 98.690938 
L 360.176562 98.690938 
L 370.176562 98.690938 
" style="fill: none; stroke: #9467bd; stroke-width: 1.5; stroke-linecap: square"/>
    </g>
    <g id="text_21">
     <!-- m=2.6 -->
     <g transform="translate(378.176562 102.190938) scale(0.1 -0.1)">
      <use xlink:href="#DejaVuSans-6d"/>
      <use xlink:href="#DejaVuSans-3d" transform="translate(97.412109 0)"/>
      <use xlink:href="#DejaVuSans-32" transform="translate(181.201172 0)"/>
      <use xlink:href="#DejaVuSans-2e" transform="translate(244.824219 0)"/>
      <use xlink:href="#DejaVuSans-36" transform="translate(276.611328 0)"/>
     </g>
    </g>
   </g>
  </g>
 </g>
 <defs>
  <clipPath id="p5077f21e7b">
   <rect x="44.57" y="26.88" width="376.63" height="291.16"/>
  </clipPath>
 </defs>
</svg>
